<svg xmlns="http://www.w3.org/2000/svg" width="56" height="56" viewBox="0 0 56 56" fill="none">
  <path d="M 0 0 L 0 56 L 56 56 L 56 0 L 0 0 Z M 47.078 43.523 L 47.078 43.501 L 42.568 42.875 L 42.952 40.154 C 39.572 42.195 35.742 43.588 31.66 43.852 C 20.565 44.719 9.405 35.995 11.599 23.66 L 11.599 23.638 C 12.905 16.582 20.346 10.711 27.874 12.554 C 30.76 13.246 33.646 15.133 35.04 18.107 C 36.104 20.269 36.137 22.826 35.358 24.977 C 34.579 27.15 32.889 29.169 30.288 29.893 C 28.521 30.398 26.403 30.244 24.691 29.037 C 22.826 27.742 21.63 25.174 22.475 22.683 C 23.429 19.797 26.217 19.325 27.753 19.654 C 29.07 19.951 29.564 20.752 29.652 21.86 C 29.695 23.056 28.576 23.561 28.06 23.627 C 27.545 23.704 27.237 23.715 27.051 23.813 C 26.908 23.89 26.842 23.967 26.787 24.11 L 26.787 24.143 C 26.7 24.395 26.809 24.955 27.292 25.295 L 27.303 25.295 L 27.303 25.317 C 27.709 25.591 28.346 25.712 29.026 25.514 L 29.048 25.514 C 29.937 25.262 30.672 24.538 31.067 23.44 C 31.462 22.321 31.418 21.059 30.936 20.104 L 30.936 20.082 L 30.914 20.06 C 30.222 18.59 28.642 17.416 26.787 16.977 C 22.178 15.846 16.977 19.578 16.066 24.461 C 14.54 33.086 22.343 40.033 31.309 39.32 L 31.353 39.32 C 34.623 39.111 37.816 37.959 40.713 36.192 L 38.2 35.435 L 39.506 31.078 L 48.439 33.767 L 47.078 43.523 Z" fill="currentColor" fill-rule="evenodd"/>
</svg>
