<svg xmlns="http://www.w3.org/2000/svg" width="56" height="56" viewBox="0 0 56 56" fill="none">
  <path d="M 28.011 0 C 12.546 0 0 12.543 0 28.005 C 0 43.468 12.535 56 28 56 C 43.465 56 56 43.468 56 28.005 C 56 12.543 43.476 0 28.011 0 Z M 47.087 43.501 L 42.576 42.875 L 42.96 40.154 C 39.58 42.195 35.749 43.588 31.666 43.852 C 20.569 44.719 9.407 35.995 11.602 23.66 L 11.602 23.638 C 12.908 16.582 20.35 10.711 27.879 12.554 C 30.766 13.246 33.653 15.133 35.047 18.107 C 36.111 20.269 36.144 22.826 35.365 24.977 C 34.586 27.15 32.895 29.169 30.294 29.893 C 28.527 30.398 26.408 30.244 24.696 29.037 C 22.83 27.742 21.634 25.174 22.479 22.683 C 23.434 19.797 26.222 19.325 27.759 19.654 C 29.076 19.951 29.57 20.752 29.657 21.86 C 29.701 23.056 28.582 23.561 28.066 23.627 C 27.55 23.704 27.243 23.715 27.056 23.813 C 26.913 23.89 26.848 23.967 26.793 24.11 L 26.793 24.143 C 26.705 24.395 26.815 24.955 27.298 25.295 L 27.309 25.295 L 27.319 25.317 C 27.715 25.591 28.351 25.712 29.032 25.514 L 29.043 25.514 L 29.054 25.514 C 29.943 25.262 30.678 24.538 31.073 23.44 C 31.468 22.321 31.425 21.059 30.942 20.104 L 30.942 20.082 L 30.92 20.06 C 30.228 18.59 28.648 17.416 26.793 16.977 C 22.183 15.846 16.98 19.578 16.069 24.461 C 14.543 33.086 22.347 40.033 31.315 39.32 L 31.337 39.32 L 31.359 39.32 C 34.63 39.111 37.824 37.959 40.721 36.192 L 38.208 35.435 L 39.514 31.078 L 48.448 33.767 L 47.087 43.523 L 47.087 43.501 Z" fill="currentColor" fill-rule="evenodd"/>
</svg>
