<svg xmlns="http://www.w3.org/2000/svg" width="98.447" height="21.461" viewBox="0 0 98.447 21.461" fill="none">
  <path d="M 7.83 21.461 C 6.264 21.461 4.894 21.107 3.719 20.4 C 2.545 19.693 1.631 18.735 0.979 17.526 C 0.326 16.316 0 14.977 0 13.507 C 0 11.982 0.326 10.633 0.979 9.461 C 1.65 8.27 2.554 7.33 3.691 6.642 C 4.847 5.954 6.133 5.609 7.55 5.609 C 8.743 5.609 9.787 5.805 10.682 6.195 C 11.596 6.586 12.369 7.126 13.003 7.814 C 13.637 8.502 14.122 9.293 14.457 10.186 C 14.793 11.061 14.961 12.009 14.961 13.033 C 14.961 13.293 14.942 13.563 14.905 13.842 C 14.886 14.121 14.84 14.363 14.765 14.568 L 3.02 14.568 L 3.02 11.777 L 12.696 11.777 L 10.962 13.088 C 11.13 12.233 11.083 11.47 10.822 10.8 C 10.58 10.13 10.17 9.6 9.592 9.209 C 9.032 8.819 8.352 8.623 7.55 8.623 C 6.786 8.623 6.105 8.819 5.509 9.209 C 4.912 9.581 4.456 10.14 4.139 10.884 C 3.84 11.609 3.729 12.493 3.803 13.535 C 3.729 14.465 3.85 15.293 4.167 16.019 C 4.502 16.726 4.987 17.275 5.621 17.665 C 6.273 18.056 7.019 18.251 7.858 18.251 C 8.697 18.251 9.405 18.075 9.983 17.721 C 10.58 17.368 11.046 16.893 11.381 16.298 L 14.346 17.749 C 14.047 18.475 13.581 19.116 12.947 19.675 C 12.313 20.233 11.558 20.67 10.682 20.986 C 9.825 21.303 8.874 21.461 7.83 21.461 Z" fill="currentColor" fill-rule="nonzero"/>
  <path d="M 20.621 21.126 L 14.637 5.944 L 18.636 5.944 L 22.97 17.889 L 21.488 17.889 L 25.851 5.944 L 29.85 5.944 L 23.865 21.126 L 20.621 21.126 Z" fill="currentColor" fill-rule="nonzero"/>
  <path d="M 37.753 21.461 C 36.262 21.461 34.901 21.116 33.671 20.428 C 32.459 19.74 31.489 18.8 30.762 17.609 C 30.054 16.419 29.7 15.061 29.7 13.535 C 29.7 12.009 30.054 10.651 30.762 9.461 C 31.489 8.27 32.459 7.33 33.671 6.642 C 34.882 5.954 36.243 5.609 37.753 5.609 C 39.245 5.609 40.596 5.954 41.808 6.642 C 43.02 7.33 43.98 8.27 44.688 9.461 C 45.416 10.633 45.779 11.991 45.779 13.535 C 45.779 15.061 45.416 16.419 44.688 17.609 C 43.961 18.8 42.992 19.74 41.78 20.428 C 40.568 21.116 39.226 21.461 37.753 21.461 Z M 37.753 18.112 C 38.574 18.112 39.291 17.916 39.907 17.526 C 40.54 17.135 41.035 16.596 41.389 15.907 C 41.762 15.2 41.948 14.409 41.948 13.535 C 41.948 12.642 41.762 11.861 41.389 11.191 C 41.035 10.502 40.54 9.963 39.907 9.572 C 39.291 9.163 38.574 8.958 37.753 8.958 C 36.914 8.958 36.178 9.163 35.544 9.572 C 34.91 9.963 34.407 10.502 34.034 11.191 C 33.68 11.861 33.503 12.642 33.503 13.535 C 33.503 14.409 33.68 15.2 34.034 15.907 C 34.407 16.596 34.91 17.135 35.544 17.526 C 36.178 17.916 36.914 18.112 37.753 18.112 Z" fill="currentColor" fill-rule="nonzero"/>
  <path d="M 47.557 21.126 L 47.557 0 L 51.22 0 L 51.22 21.126 L 47.557 21.126 Z" fill="currentColor" fill-rule="nonzero"/>
  <path d="M 59.313 21.461 C 58.138 21.461 57.113 21.2 56.237 20.679 C 55.379 20.158 54.717 19.433 54.251 18.503 C 53.804 17.572 53.58 16.484 53.58 15.237 L 53.58 5.944 L 57.243 5.944 L 57.243 14.93 C 57.243 15.563 57.365 16.121 57.607 16.605 C 57.868 17.07 58.231 17.442 58.697 17.721 C 59.182 17.982 59.723 18.112 60.319 18.112 C 60.916 18.112 61.447 17.982 61.913 17.721 C 62.379 17.442 62.743 17.061 63.004 16.577 C 63.265 16.093 63.395 15.516 63.395 14.847 L 63.395 5.944 L 67.059 5.944 L 67.059 21.126 L 63.591 21.126 L 63.591 18.14 L 63.899 18.67 C 63.545 19.6 62.957 20.298 62.137 20.763 C 61.335 21.228 60.394 21.461 59.313 21.461 Z" fill="currentColor" fill-rule="nonzero"/>
  <path d="M 69.749 21.126 L 69.749 5.944 L 73.189 5.944 L 73.189 8.93 L 72.909 8.4 C 73.263 7.488 73.841 6.8 74.643 6.335 C 75.463 5.851 76.414 5.609 77.495 5.609 C 78.614 5.609 79.602 5.851 80.46 6.335 C 81.336 6.819 82.016 7.498 82.501 8.372 C 82.986 9.228 83.228 10.223 83.228 11.358 L 83.228 21.126 L 79.565 21.126 L 79.565 12.223 C 79.565 11.554 79.434 10.977 79.173 10.493 C 78.912 10.009 78.549 9.637 78.083 9.377 C 77.635 9.098 77.104 8.958 76.489 8.958 C 75.892 8.958 75.361 9.098 74.895 9.377 C 74.429 9.637 74.065 10.009 73.804 10.493 C 73.543 10.977 73.413 11.554 73.413 12.223 L 73.413 21.126 L 69.749 21.126 Z" fill="currentColor" fill-rule="nonzero"/>
  <path d="M 90.225 21.461 C 89.162 21.461 88.24 21.284 87.457 20.93 C 86.674 20.577 86.068 20.075 85.639 19.423 C 85.21 18.754 84.996 17.982 84.996 17.107 C 84.996 16.27 85.182 15.526 85.555 14.875 C 85.928 14.205 86.506 13.647 87.289 13.2 C 88.072 12.754 89.06 12.437 90.253 12.251 L 95.231 11.442 L 95.231 14.233 L 90.952 14.958 C 90.225 15.089 89.684 15.321 89.33 15.656 C 88.976 15.991 88.799 16.428 88.799 16.968 C 88.799 17.489 88.995 17.907 89.386 18.223 C 89.796 18.521 90.3 18.67 90.896 18.67 C 91.661 18.67 92.332 18.512 92.91 18.196 C 93.506 17.861 93.963 17.405 94.28 16.828 C 94.615 16.251 94.783 15.619 94.783 14.93 L 94.783 11.023 C 94.783 10.372 94.522 9.833 94 9.405 C 93.497 8.958 92.826 8.735 91.987 8.735 C 91.204 8.735 90.505 8.949 89.89 9.377 C 89.293 9.786 88.855 10.335 88.575 11.023 L 85.583 9.572 C 85.881 8.772 86.347 8.084 86.981 7.507 C 87.634 6.912 88.398 6.447 89.274 6.112 C 90.151 5.777 91.101 5.609 92.127 5.609 C 93.376 5.609 94.476 5.842 95.426 6.307 C 96.377 6.754 97.114 7.386 97.636 8.205 C 98.176 9.005 98.447 9.944 98.447 11.023 L 98.447 21.126 L 94.979 21.126 L 94.979 18.53 L 95.762 18.475 C 95.37 19.126 94.904 19.675 94.364 20.121 C 93.823 20.549 93.208 20.884 92.518 21.126 C 91.828 21.349 91.064 21.461 90.225 21.461 Z" fill="currentColor" fill-rule="nonzero"/>
</svg>
