<svg xmlns="http://www.w3.org/2000/svg" width="65.600" height="56" viewBox="0 0 65.600 56" fill="none">
  <path d="M 42.497 22.552 C 43.861 18.746 43.809 14.248 41.929 10.42 C 39.448 5.17 34.361 1.833 29.256 0.606 C 15.946 -2.654 2.808 7.723 0.495 20.186 L 0.495 20.2 L 0.492 20.215 C -3.386 42.007 16.349 57.433 35.952 55.894 C 43.15 55.429 49.933 52.953 55.899 49.356 L 55.225 54.173 L 63.189 55.286 L 65.6 38.062 L 49.816 33.311 L 47.5 41.007 L 51.949 42.348 C 46.836 45.469 41.193 47.502 35.41 47.872 L 35.38 47.872 L 35.351 47.876 C 19.508 49.132 5.71 36.871 8.411 21.633 C 10.02 13.013 19.204 6.408 27.358 8.412 L 27.369 8.412 L 27.38 8.419 C 30.66 9.203 33.449 11.266 34.673 13.87 L 34.691 13.907 L 34.71 13.944 C 35.545 15.629 35.64 17.86 34.933 19.838 C 34.237 21.783 32.936 23.061 31.36 23.501 L 31.338 23.508 L 31.316 23.515 C 30.132 23.86 28.989 23.651 28.3 23.16 L 28.278 23.145 L 28.256 23.131 C 27.387 22.53 27.2 21.541 27.354 21.09 L 27.365 21.065 L 27.373 21.039 C 27.457 20.779 27.574 20.644 27.831 20.508 C 28.172 20.329 28.718 20.31 29.623 20.178 C 30.528 20.046 32.503 19.164 32.43 17.05 C 32.276 15.09 31.4 13.669 29.073 13.149 C 26.361 12.563 21.436 13.401 19.743 18.501 C 18.24 22.9 20.362 27.431 23.657 29.728 C 26.665 31.86 30.422 32.142 33.541 31.245 C 38.132 29.959 41.127 26.398 42.505 22.556 L 42.497 22.552 Z" fill="currentColor" fill-rule="nonzero"/>
</svg>
